<?xml version="1.0" encoding="UTF-8"?>
<svg version="1.1" xmlns="http://www.w3.org/2000/svg" width="256" height="256">
<path d="M0 0 C0.88140656 0.00176239 1.76281311 0.00352478 2.67092896 0.00534058 C16.12895816 0.06532907 28.61354375 0.89040379 41.375 5.5 C42.46264648 5.86955811 42.46264648 5.86955811 43.57226562 6.24658203 C58.05905902 11.24858928 74.46694802 19.56005313 85.375 30.5 C85.375 31.16 85.375 31.82 85.375 32.5 C86.23738281 32.87705078 86.23738281 32.87705078 87.1171875 33.26171875 C105.63857199 43.41964069 118.55733436 71.07709731 124.375 90.5 C124.58382812 91.16966797 124.79265625 91.83933594 125.0078125 92.52929688 C128.62185522 104.70953578 128.79093926 117.08603118 128.875 129.6875 C128.89080109 130.89095062 128.89080109 130.89095062 128.90692139 132.11871338 C129.24866626 165.82061173 114.54017525 196.33553378 91.45703125 220.40625 C70.72636172 241.48080857 41.04290749 256.43166984 11.14453125 256.73828125 C9.96879295 256.75310799 9.96879295 256.75310799 8.76930237 256.76823425 C-24.2185002 257.09870554 -24.2185002 257.09870554 -37.625 252.5 C-38.43485352 252.22623535 -39.24470703 251.9524707 -40.07910156 251.67041016 C-73.46542284 240.03501863 -101.13502803 216.47270369 -116.625 184.5 C-117.97622075 181.55068824 -119.23267111 178.5744076 -120.4375 175.5625 C-120.70328857 174.90870361 -120.96907715 174.25490723 -121.24291992 173.58129883 C-126.83375684 158.85108689 -128.37555604 144.5088435 -128.25 128.875 C-128.24701904 127.95412598 -128.24403809 127.03325195 -128.2409668 126.08447266 C-128.15637849 111.52770842 -126.99635583 98.17050644 -121.625 84.5 C-121.30934082 83.67693359 -120.99368164 82.85386719 -120.66845703 82.00585938 C-116.97048963 72.58075507 -112.54976949 63.73836749 -106.625 55.5 C-105.89796875 54.47777344 -105.1709375 53.45554688 -104.421875 52.40234375 C-89.07940718 31.37981792 -68.42016489 15.81074003 -44.0625 6.625 C-42.98512573 6.21374878 -42.98512573 6.21374878 -41.88598633 5.79418945 C-28.08398814 0.86610652 -14.49275609 -0.07749044 0 0 Z " fill="#C45791" transform="translate(127.625,-0.5)"/>
<path d="M0 0 C4.42685544 0.23835933 6.95841826 3.56243507 9.8671875 6.5390625 C10.42439484 7.09814301 10.98160217 7.65722351 11.55569458 8.23324585 C12.73417423 9.41844401 13.90905238 10.60723258 15.08056641 11.79931641 C16.85472267 13.60436954 18.63907893 15.39877952 20.42578125 17.19140625 C21.57353652 18.34834373 22.7206909 19.5058777 23.8671875 20.6640625 C24.39238983 21.19351471 24.91759216 21.72296692 25.45870972 22.26846313 C28.66496134 25.53545152 31.67870406 28.90871198 34.59793091 32.43515015 C36.00955102 34.01065989 37.47664054 35.30259368 39.125 36.625 C42 39 42 39 43.875 41.375 C45.75401464 43.69613573 47.5477523 45.39550626 49.8125 47.3125 C53.26959955 50.26570497 56.20363038 53.40351744 59.12109375 56.8828125 C61.99102624 60.11670732 65.18604923 63.00566344 68.375 65.921875 C68.91125 66.60765625 69.4475 67.2934375 70 68 C69.67 69.32 69.34 70.64 69 72 C64.38 72 59.76 72 55 72 C55.0314209 75.05060669 55.0314209 75.05060669 55.06347656 78.1628418 C55.12980585 84.88822154 55.17395895 91.61361587 55.20724869 98.33923626 C55.22810852 102.41635654 55.25639619 106.49314122 55.30175781 110.57006836 C55.34527382 114.50582482 55.36914918 118.44125882 55.37950897 122.37723732 C55.38689011 123.87755216 55.40130403 125.37784969 55.42292023 126.87802696 C55.45203262 128.98246531 55.45595302 131.08557767 55.45410156 133.19018555 C55.46298401 134.38709518 55.47186646 135.58400482 55.48101807 136.81718445 C54.90403632 140.63497552 53.67691954 142.27166717 51 145 C47.89049471 146.55475264 44.5955297 146.14199524 41.18359375 146.1328125 C40.41193375 146.13376923 39.64027374 146.13472595 38.8452301 146.13571167 C37.21363239 146.13639246 35.58203197 146.1345452 33.95043945 146.13037109 C31.44411179 146.12501413 28.93796275 146.13032319 26.43164062 146.13671875 C24.84895794 146.13605809 23.26627536 146.13477719 21.68359375 146.1328125 C20.92944687 146.13483673 20.17529999 146.13686096 19.39830017 146.13894653 C14.11495624 146.11495624 14.11495624 146.11495624 13 145 C12.90731001 143.64905018 12.88252674 142.29332909 12.88647461 140.93920898 C12.88658791 139.64798378 12.88658791 139.64798378 12.88670349 138.33067322 C12.89186478 137.39526199 12.89702606 136.45985077 12.90234375 135.49609375 C12.9037587 134.54307877 12.90517365 133.59006378 12.90663147 132.60816956 C12.91224848 129.55124835 12.92480384 126.49439923 12.9375 123.4375 C12.94251281 121.37044376 12.94707609 119.30338638 12.95117188 117.23632812 C12.96137442 112.15750167 12.98094644 107.07883194 13 102 C3.76 102 -5.48 102 -15 102 C-14.98839844 105.09246094 -14.97679687 108.18492187 -14.96484375 111.37109375 C-14.95705399 114.35294492 -14.95097677 117.33479497 -14.94506836 120.31665039 C-14.94002712 122.39543156 -14.93319426 124.47420916 -14.92456055 126.55297852 C-14.91248578 129.53402586 -14.90676976 132.51502649 -14.90234375 135.49609375 C-14.89718246 136.43150497 -14.89202118 137.3669162 -14.88670349 138.33067322 C-14.88662796 139.19149002 -14.88655243 140.05230682 -14.88647461 140.93920898 C-14.884254 141.70087875 -14.88203339 142.46254852 -14.87974548 143.24729919 C-15 145 -15 145 -16 146 C-18.53512084 146.13819268 -21.04106135 146.21311646 -23.578125 146.23828125 C-24.34171326 146.246353 -25.10530151 146.25442474 -25.89202881 146.26274109 C-27.51279418 146.27659917 -29.13358894 146.28731359 -30.75439453 146.29516602 C-33.22615583 146.31233438 -35.6965641 146.35619668 -38.16796875 146.40039062 C-39.74217765 146.41052128 -41.31639795 146.41903622 -42.890625 146.42578125 C-43.62726379 146.44328934 -44.36390259 146.46079742 -45.12286377 146.47883606 C-48.80188312 146.46339653 -50.82369583 146.11386676 -53.94433594 144.09838867 C-57.3821019 140.5891727 -57.12242681 138.35533015 -57.11352539 133.53076172 C-57.11367142 132.86722687 -57.11381744 132.20369202 -57.1139679 131.52005005 C-57.11327031 129.32322947 -57.10548514 127.1264933 -57.09765625 124.9296875 C-57.09579152 123.40796963 -57.09436788 121.88625116 -57.09336853 120.36453247 C-57.08954767 116.35648953 -57.07972104 112.34848274 -57.06866455 108.3404541 C-57.05844118 104.25171396 -57.05386892 100.16296799 -57.04882812 96.07421875 C-57.0380984 88.04946072 -57.02050507 80.02473902 -57 72 C-61.62 72 -66.24 72 -71 72 C-71.33 70.68 -71.66 69.36 -72 68 C-70.08760309 65.68148393 -68.24118021 63.72742201 -66.0625 61.6875 C-65.46219971 61.10718018 -64.86189941 60.52686035 -64.2434082 59.92895508 C-60.53747199 56.37067765 -56.74082474 52.93088893 -52.82421875 49.60546875 C-50.08211814 47.19218534 -47.56175172 44.5705291 -45 41.96875 C-42.43694772 39.44574541 -39.72654176 37.12437183 -37 34.78125 C-34.91662922 32.9257479 -32.95718793 30.98776899 -31 29 C-28.46027814 26.4207494 -25.87548686 23.97782611 -23.125 21.625 C-19.02477531 18.10363056 -15.2690465 14.28473796 -11.47265625 10.44140625 C-8.11766855 7.12881966 -4.58374052 4.05974713 -1 1 C-0.67 0.67 -0.34 0.34 0 0 Z " fill="#FDFDFD" transform="translate(129,55)"/>
<path d="M0 0 C3.64581687 -0.02887512 7.29160463 -0.04675585 10.9375 -0.0625 C12.49887695 -0.07506836 12.49887695 -0.07506836 14.09179688 -0.08789062 C15.08115234 -0.09111328 16.07050781 -0.09433594 17.08984375 -0.09765625 C18.46450806 -0.10551147 18.46450806 -0.10551147 19.86694336 -0.11352539 C22 0 22 0 23 1 C23.08855161 3.6662603 23.11524673 6.30647114 23.09765625 8.97265625 C23.0962413 9.77029892 23.09482635 10.56794159 23.09336853 11.38975525 C23.08775316 13.94737435 23.07519812 16.50490718 23.0625 19.0625 C23.05748698 20.79231645 23.05292373 22.52213426 23.04882812 24.25195312 C23.03777875 28.50133553 23.02050386 32.75065312 23 37 C19.9247657 35.61759033 17.7029837 34.00364236 15.25 31.69921875 C14.5590625 31.05146484 13.868125 30.40371094 13.15625 29.73632812 C12.4446875 29.06021484 11.733125 28.38410156 11 27.6875 C9.93265625 26.69073242 9.93265625 26.69073242 8.84375 25.67382812 C-0.79304406 16.58539641 -0.79304406 16.58539641 -1.42578125 11.73828125 C-1.38839844 10.60777344 -1.35101563 9.47726563 -1.3125 8.3125 C-1.28800781 7.17425781 -1.26351562 6.03601563 -1.23828125 4.86328125 C-1 2 -1 2 0 0 Z " fill="#FCFAFC" transform="translate(160,65)"/>
<path d="M0 0 C0.66 0.66 1.32 1.32 2 2 C2.45503906 2.45375 2.91007813 2.9075 3.37890625 3.375 C4.55849174 4.55742786 5.73219815 5.74572953 6.90234375 6.9375 C10.7773674 10.86458731 14.69139768 14.55311814 19 18 C18.01 18.66 17.02 19.32 16 20 C14.62437146 18.71034824 13.29233607 17.37310707 12 16 C12 15.34 12 14.68 12 14 C10.68 13.34 9.36 12.68 8 12 C8 11.34 8 10.68 8 10 C7.4225 9.7525 6.845 9.505 6.25 9.25 C3.62776908 7.79320504 1.90746919 6.31621258 0 4 C0 2.68 0 1.36 0 0 Z " fill="#D079A7" transform="translate(159,80)"/>
<path d="M0 0 C2.93200474 2.85276137 5.64315404 5.65079784 8 9 C5 9 5 9 2.3125 6.75 C0 4 0 4 0 0 Z " fill="#D589B1" transform="translate(159,80)"/>
</svg>
