<?xml version="1.0" encoding="UTF-8"?>
<svg version="1.1" xmlns="http://www.w3.org/2000/svg" width="512" height="512">
<path d="M0 0 C1.01790619 0.00215515 2.03581238 0.0043103 3.08456421 0.00653076 C17.69363523 0.05620146 32.02575853 0.30709809 46.375 3.3125 C47.34985352 3.51117676 48.32470703 3.70985352 49.32910156 3.91455078 C97.7109774 14.03517194 141.69928269 35.9516877 177.375 70.3125 C178.3640332 71.26068604 178.3640332 71.26068604 179.37304688 72.22802734 C188.86130305 81.37247479 197.6012044 90.66984009 205.375 101.3125 C206.23306152 102.46355017 207.09113451 103.61459177 207.94921875 104.765625 C213.98736829 112.95680614 219.34595521 121.47054105 224.375 130.3125 C224.73948242 130.94430176 225.10396484 131.57610352 225.47949219 132.22705078 C247.08534998 169.97532572 256.85198095 212.74189997 256.6875 255.9375 C256.68534485 256.95540619 256.6831897 257.97331238 256.68096924 259.02206421 C256.63129854 273.63113523 256.38040191 287.96325853 253.375 302.3125 C253.07698486 303.77478027 253.07698486 303.77478027 252.77294922 305.26660156 C242.65232806 353.6484774 220.7358123 397.63678269 186.375 433.3125 C185.74287598 433.97185547 185.11075195 434.63121094 184.45947266 435.31054688 C175.31502521 444.79880305 166.01765991 453.5387044 155.375 461.3125 C154.22394983 462.17056152 153.07290823 463.02863451 151.921875 463.88671875 C143.73224019 469.92427396 135.22961724 475.30707302 126.375 480.3125 C125.66778809 480.7146875 124.96057617 481.116875 124.23193359 481.53125 C101.09654164 494.5566741 75.92537591 503.30551461 49.9375 508.625 C49.21860596 508.77235596 48.49971191 508.91971191 47.7590332 509.0715332 C33.08339502 511.86090125 18.55831162 512.66142619 3.64770508 512.62817383 C0.70811513 512.6250221 -2.2304558 512.64854926 -5.16992188 512.67382812 C-18.54306192 512.71848737 -31.43916711 511.51301542 -44.625 509.3125 C-46.33055054 509.03031616 -46.33055054 509.03031616 -48.07055664 508.74243164 C-91.33802759 500.97044532 -132.38793216 480.98345309 -165.625 452.3125 C-166.37007813 451.67828125 -167.11515625 451.0440625 -167.8828125 450.390625 C-181.38779833 438.57948485 -194.05918743 425.82889772 -204.625 411.3125 C-205.48149066 410.16255169 -206.33826433 409.01281411 -207.1953125 407.86328125 C-213.23534209 399.67315742 -218.61867614 391.16870382 -223.625 382.3125 C-224.0271875 381.60528809 -224.429375 380.89807617 -224.84375 380.16943359 C-237.8691741 357.03404164 -246.61801461 331.86287591 -251.9375 305.875 C-252.08485596 305.15610596 -252.23221191 304.43721191 -252.3840332 303.6965332 C-255.35789088 288.05024391 -255.99800362 272.57681954 -255.9375 256.6875 C-255.93534485 255.66959381 -255.9331897 254.65168762 -255.93096924 253.60293579 C-255.88129854 238.99386477 -255.63040191 224.66174147 -252.625 210.3125 C-252.42632324 209.33764648 -252.22764648 208.36279297 -252.02294922 207.35839844 C-241.90232806 158.9765226 -219.9858123 114.98821731 -185.625 79.3125 C-184.99287598 78.65314453 -184.36075195 77.99378906 -183.70947266 77.31445312 C-174.56502521 67.82619695 -165.26765991 59.0862956 -154.625 51.3125 C-153.47394983 50.45443848 -152.32290823 49.59636549 -151.171875 48.73828125 C-142.98224019 42.70072604 -134.47961724 37.31792698 -125.625 32.3125 C-124.91778809 31.9103125 -124.21057617 31.508125 -123.48193359 31.09375 C-100.34654164 18.0683259 -75.17537591 9.31948539 -49.1875 4 C-48.46860596 3.85264404 -47.74971191 3.70528809 -47.0090332 3.5534668 C-31.36274391 0.57960912 -15.88931954 -0.06050362 0 0 Z " fill="#C45791" transform="translate(255.625,-0.3125)"/>
<path d="M0 0 C3.89942558 0.46377919 5.01599157 1.5150529 7.74876404 4.28552246 C8.6066301 5.14061401 9.46449615 5.99570557 10.34835815 6.87670898 C11.71263695 8.28273376 11.71263695 8.28273376 13.10447693 9.71716309 C14.06437475 10.68572758 15.02554296 11.65303454 15.98791504 12.61914062 C18.51905259 15.1674972 21.03126708 17.73376443 23.54032898 20.30383301 C25.57304684 22.37990324 27.6185185 24.44313236 29.66492367 26.50569916 C45.95434115 42.92597601 45.95434115 42.92597601 50.45042419 48.19958496 C55.14705369 53.64837813 60.30612554 58.65022779 65.40715027 63.71609497 C67.30235211 65.59837484 69.19427371 67.48389927 71.08543396 69.37023926 C75.10068022 73.37413348 79.11985331 77.37407115 83.13963318 81.37341309 C87.80278779 86.01285863 92.46425873 90.65397049 97.12150574 95.29934692 C98.97330352 97.14472667 100.82811766 98.98703603 102.68309021 100.82922363 C107.88259126 106.00647957 112.99266349 111.18262662 117.75440979 116.77224731 C119.6381077 118.94959477 121.67263847 120.93615645 123.76072693 122.91638184 C124.55027771 123.68015137 125.33982849 124.4439209 126.15330505 125.23083496 C127.78927371 126.80352683 129.43271304 128.36847911 131.08299255 129.92614746 C131.8635199 130.6860498 132.64404724 131.44595215 133.44822693 132.22888184 C134.15777527 132.90588135 134.86732361 133.58288086 135.59837341 134.28039551 C137.50420966 136.86850483 137.61273044 138.22668311 137.13963318 141.37341309 C135.13963318 143.37341309 135.13963318 143.37341309 132.3422699 143.60046387 C131.17969666 143.58999023 130.01712341 143.5795166 128.81932068 143.56872559 C126.93406677 143.55905762 126.93406677 143.55905762 125.01072693 143.54919434 C123.69201599 143.53243652 122.37330505 143.51567871 121.01463318 143.49841309 C119.67479597 143.48838291 118.33495166 143.47925712 116.99510193 143.47106934 C113.70976745 143.44743384 110.42478853 143.41448543 107.13963318 143.37341309 C107.14332035 144.05663887 107.14700752 144.73986465 107.15080643 145.44379425 C107.2392376 162.08689664 107.30538166 178.72992438 107.34688187 195.37320709 C107.36748576 203.42186432 107.39556459 211.47036449 107.44139099 219.5189209 C107.48132555 226.53604474 107.50708179 233.55305481 107.51598716 240.57028913 C107.52119078 244.28410908 107.53337523 247.99760358 107.56255341 251.71131897 C107.59490256 255.86250088 107.59558836 260.01312108 107.59373474 264.16442871 C107.60811584 265.38866547 107.62249695 266.61290222 107.63731384 267.87423706 C107.59811105 275.9911528 106.72796454 281.78508172 100.76463318 287.74841309 C95.78590563 290.83048252 91.24763003 291.6248357 85.44749451 291.64807129 C83.48064445 291.66236931 83.48064445 291.66236931 81.47406006 291.67695618 C80.05659457 291.67669483 78.63912907 291.6757582 77.22166443 291.67419434 C75.7576892 291.67808449 74.29371509 291.68241982 72.82974243 291.68717957 C69.77097399 291.69461944 66.71232105 291.69436524 63.65354919 291.68908691 C59.73256664 291.68327261 55.81205345 291.70028072 51.89114857 291.72343159 C48.87228633 291.73814885 45.85353798 291.73904379 42.83464622 291.73592186 C41.3885422 291.73643535 39.94243184 291.74167827 38.49636269 291.75173378 C36.47880781 291.76405054 34.46115763 291.75538128 32.44358826 291.74572754 C31.29586441 291.74635696 30.14814056 291.74698639 28.96563721 291.74763489 C26.13963318 291.37341309 26.13963318 291.37341309 24.266922 290.35910034 C22.44751346 287.15426384 22.74973947 283.81501748 22.79905701 280.23010254 C22.79861893 279.40061096 22.79818085 278.57111938 22.79772949 277.7164917 C22.79982059 274.972987 22.82316657 272.23009236 22.84666443 269.48669434 C22.85225925 267.58526442 22.85652988 265.68383019 22.85952759 263.78239441 C22.87098536 258.77635776 22.9004606 253.77058198 22.93363953 248.76464844 C22.96971397 242.75914654 22.98349712 236.75355744 23.00099945 230.74797821 C23.03009736 221.6229417 23.08757809 212.49847765 23.13963318 203.37341309 C4.65963318 203.37341309 -13.82036682 203.37341309 -32.86036682 203.37341309 C-32.82556213 209.4745459 -32.79075745 215.57567871 -32.75489807 221.86169434 C-32.73957351 225.72172992 -32.72513195 229.58172812 -32.71388245 233.44177246 C-32.69593338 239.57165291 -32.67467614 245.70139921 -32.63404846 251.83117676 C-32.60150582 256.77190307 -32.58352454 261.71248558 -32.57573509 266.65331078 C-32.57018241 268.54042005 -32.55933967 270.42752125 -32.54317665 272.31456947 C-32.52147 274.95325493 -32.51839704 277.59134249 -32.51979065 280.23010254 C-32.50900482 281.01412949 -32.49821899 281.79815643 -32.48710632 282.60594177 C-32.50373568 285.5065162 -32.5345801 287.79820697 -33.98390198 290.3571167 C-36.76717036 291.86453935 -39.06823867 291.76275842 -42.22438049 291.77746582 C-44.19739388 291.79649208 -44.19739388 291.79649208 -46.21026611 291.81590271 C-47.64962419 291.81385035 -49.08898119 291.81086157 -50.52833557 291.80700684 C-52.00704183 291.81156925 -53.48574596 291.81687501 -54.96444702 291.82289124 C-58.06729223 291.83183192 -61.16988026 291.82939145 -64.27272034 291.81945801 C-68.23268753 291.80801126 -72.19175728 291.82810756 -76.15160656 291.85737514 C-79.20845106 291.87580852 -82.2650838 291.87542985 -85.32196999 291.86973763 C-86.78069117 291.86958504 -88.23942728 291.87557711 -89.69809532 291.8880291 C-97.62984183 291.94616055 -104.07828402 291.89981885 -110.86036682 287.37341309 C-114.88135524 283.03497821 -117.11185863 279.80772148 -117.10087585 273.8495636 C-117.10362518 272.70111465 -117.10637451 271.55266571 -117.10920715 270.36941528 C-117.1020166 269.10850067 -117.09482605 267.84758606 -117.0874176 266.54846191 C-117.0868535 265.20813506 -117.08717004 263.86780758 -117.08830261 262.52748108 C-117.08887715 258.88722495 -117.07710655 255.24710025 -117.0631547 251.6068747 C-117.05066415 247.80320541 -117.04947816 243.9995332 -117.04710388 240.19584656 C-117.04088418 232.99230961 -117.02446674 225.78883328 -117.0044049 218.58532304 C-116.98206115 210.3846925 -116.97105631 202.1840591 -116.96101403 193.98340571 C-116.94010093 177.1133731 -116.90491544 160.2433995 -116.86036682 143.37341309 C-117.69809631 143.38388672 -118.53582581 143.39436035 -119.39894104 143.40515137 C-122.50374846 143.43921327 -125.60846074 143.4643022 -128.71339417 143.48327637 C-130.71948042 143.49829416 -132.72548006 143.52370289 -134.73146057 143.54919434 C-135.98829651 143.55563965 -137.24513245 143.56208496 -138.54005432 143.56872559 C-139.70262756 143.57919922 -140.86520081 143.58967285 -142.06300354 143.60046387 C-144.86036682 143.37341309 -144.86036682 143.37341309 -146.86036682 141.37341309 C-147.29786682 139.08435059 -147.29786682 139.08435059 -146.86036682 136.37341309 C-144.73536682 133.72497559 -144.73536682 133.72497559 -141.86036682 130.99841309 C-141.35779358 130.51582031 -140.85522034 130.03322754 -140.3374176 129.53601074 C-136.92654141 126.28605571 -133.40476963 123.17251589 -129.82130432 120.11560059 C-126.76807511 117.40297065 -123.94633532 114.46740855 -121.07911682 111.56091309 C-118.4526556 108.97144427 -115.69060224 106.58504344 -112.89161682 104.18591309 C-110.6239811 102.16248429 -108.49459732 100.03687962 -106.36036682 97.87341309 C-103.63207275 95.10780901 -100.87519848 92.46054278 -97.92286682 89.93591309 C-94.75000762 87.21722061 -91.796983 84.34589634 -88.86036682 81.37341309 C-85.31804483 77.7878261 -81.68481021 74.42449647 -77.85646057 71.15075684 C-74.79369955 68.42364086 -71.95813189 65.47936672 -69.07911682 62.56091309 C-66.4526556 59.97144427 -63.69060224 57.58504344 -60.89161682 55.18591309 C-58.6239811 53.16248429 -56.49459732 51.03687962 -54.36036682 48.87341309 C-50.999222 45.46622519 -47.52335479 42.29883134 -43.89161682 39.18591309 C-41.6239811 37.16248429 -39.49459732 35.03687962 -37.36036682 32.87341309 C-33.999222 29.46622519 -30.52335479 26.29883134 -26.89161682 23.18591309 C-23.82473353 20.44930953 -20.98024584 17.50184216 -18.09474182 14.57653809 C-15.38046671 11.90022486 -12.54027601 9.41181436 -9.63380432 6.94763184 C-7.63268347 5.23224091 -7.63268347 5.23224091 -5.23536682 2.43591309 C-2.86036682 0.37341309 -2.86036682 0.37341309 0 0 Z " fill="#FEFEFE" transform="translate(260.86036682128906,110.6265869140625)"/>
<path d="M0 0 C1.25128441 -0.00934319 1.25128441 -0.00934319 2.52784729 -0.01887512 C3.87325844 -0.0050605 3.87325844 -0.0050605 5.24584961 0.0090332 C6.63071815 0.00828545 6.63071815 0.00828545 8.04356384 0.00752258 C9.99455926 0.00986266 11.94555771 0.01958728 13.89648438 0.03613281 C16.89016564 0.05975112 19.88295809 0.05669013 22.87670898 0.05004883 C24.77059452 0.05562464 26.6644763 0.06273392 28.55834961 0.0715332 C29.9067971 0.07016609 29.9067971 0.07016609 31.28248596 0.06877136 C32.11352341 0.07830338 32.94456085 0.08783539 33.80078125 0.09765625 C34.5334169 0.10226364 35.26605255 0.10687103 36.02088928 0.11161804 C37.83569336 0.37231445 37.83569336 0.37231445 39.83569336 2.37231445 C40.07620239 5.42214966 40.07620239 5.42214966 40.06274414 9.39233398 C40.06303619 10.11439026 40.06332825 10.83644653 40.06362915 11.5803833 C40.06223344 13.97208587 40.04666119 16.36347866 40.03100586 18.75512695 C40.02727658 20.41136505 40.02442921 22.06760535 40.02243042 23.72384644 C40.01478725 28.08703686 39.99513296 32.45009452 39.97302246 36.81323242 C39.95257871 41.26389775 39.94343186 45.71458448 39.93334961 50.1652832 C39.91188765 58.90102127 39.87774354 67.63665136 39.83569336 76.37231445 C31.434146 69.22525534 23.23405215 61.89059665 15.21777344 54.31298828 C13.34991366 52.57192754 11.45758351 50.85672735 9.54101562 49.16943359 C-7.15350727 34.42320547 -7.15350727 34.42320547 -8.48901367 23.1237793 C-9.18260535 6.19159825 -9.18260535 6.19159825 -5.86328125 1.55496216 C-3.75161282 0.08504036 -2.56047627 -0.00219738 0 0 Z " fill="#FDFCFD" transform="translate(326.164306640625,129.627685546875)"/>
</svg>
